<mxfile host="app.diagrams.net" agent="Mozilla/5.0 (Windows NT 10.0; Win64; x64) AppleWebKit/537.36 (KHTML, like Gecko) Chrome/131.0.0.0 Safari/537.36" version="24.9.0">
  <diagram name="Página-1" id="IKj3SKVM-NGWDVBX91Uw">
    <mxGraphModel dx="2100" dy="1114" grid="1" gridSize="10" guides="1" tooltips="1" connect="1" arrows="1" fold="1" page="1" pageScale="1" pageWidth="1500" pageHeight="1200" math="0" shadow="0">
      <root>
        <mxCell id="0" />
        <mxCell id="1" parent="0" />
        <mxCell id="-d1CYgEN2nXXVW5TSLsx-1" value="Início" style="ellipse;whiteSpace=wrap;html=1;aspect=fixed;" parent="1" vertex="1">
          <mxGeometry x="120" y="265" width="50" height="50" as="geometry" />
        </mxCell>
        <mxCell id="-d1CYgEN2nXXVW5TSLsx-2" value="" style="endArrow=classic;html=1;rounded=0;fillColor=#f8cecc;strokeColor=#ff0000;" parent="1" edge="1">
          <mxGeometry width="50" height="50" relative="1" as="geometry">
            <mxPoint x="170" y="289.5" as="sourcePoint" />
            <mxPoint x="210" y="290" as="targetPoint" />
          </mxGeometry>
        </mxCell>
        <mxCell id="-d1CYgEN2nXXVW5TSLsx-7" value="" style="edgeStyle=orthogonalEdgeStyle;rounded=0;orthogonalLoop=1;jettySize=auto;html=1;" parent="1" source="-d1CYgEN2nXXVW5TSLsx-3" target="-d1CYgEN2nXXVW5TSLsx-5" edge="1">
          <mxGeometry relative="1" as="geometry" />
        </mxCell>
        <mxCell id="-d1CYgEN2nXXVW5TSLsx-3" value="Documento de Requisitos" style="ellipse;whiteSpace=wrap;html=1;aspect=fixed;" parent="1" vertex="1">
          <mxGeometry x="210" y="250" width="80" height="80" as="geometry" />
        </mxCell>
        <mxCell id="-d1CYgEN2nXXVW5TSLsx-4" value="" style="endArrow=classic;html=1;rounded=0;strokeColor=#ff0000;" parent="1" edge="1">
          <mxGeometry width="50" height="50" relative="1" as="geometry">
            <mxPoint x="290" y="289.5" as="sourcePoint" />
            <mxPoint x="330" y="290" as="targetPoint" />
          </mxGeometry>
        </mxCell>
        <mxCell id="-d1CYgEN2nXXVW5TSLsx-5" value="Relatório de Defeitos&lt;div&gt;Documento de Requisitos&lt;/div&gt;" style="ellipse;whiteSpace=wrap;html=1;aspect=fixed;" parent="1" vertex="1">
          <mxGeometry x="330" y="240" width="100" height="100" as="geometry" />
        </mxCell>
        <mxCell id="-d1CYgEN2nXXVW5TSLsx-6" value="Diagrama de Casos de Uso" style="ellipse;whiteSpace=wrap;html=1;aspect=fixed;" parent="1" vertex="1">
          <mxGeometry x="470" y="250" width="80" height="80" as="geometry" />
        </mxCell>
        <mxCell id="-d1CYgEN2nXXVW5TSLsx-9" value="" style="endArrow=classic;html=1;rounded=0;strokeColor=#ff0000;" parent="1" edge="1">
          <mxGeometry width="50" height="50" relative="1" as="geometry">
            <mxPoint x="430" y="289.5" as="sourcePoint" />
            <mxPoint x="470" y="290" as="targetPoint" />
          </mxGeometry>
        </mxCell>
        <mxCell id="-d1CYgEN2nXXVW5TSLsx-24" value="" style="edgeStyle=orthogonalEdgeStyle;rounded=0;orthogonalLoop=1;jettySize=auto;html=1;" parent="1" source="-d1CYgEN2nXXVW5TSLsx-10" target="-d1CYgEN2nXXVW5TSLsx-16" edge="1">
          <mxGeometry relative="1" as="geometry" />
        </mxCell>
        <mxCell id="-d1CYgEN2nXXVW5TSLsx-10" value="Documento de Casos de Uso Expandido" style="ellipse;whiteSpace=wrap;html=1;aspect=fixed;" parent="1" vertex="1">
          <mxGeometry x="590" y="240" width="100" height="100" as="geometry" />
        </mxCell>
        <mxCell id="-d1CYgEN2nXXVW5TSLsx-11" value="" style="endArrow=classic;html=1;rounded=0;" parent="1" edge="1" target="-d1CYgEN2nXXVW5TSLsx-10">
          <mxGeometry width="50" height="50" relative="1" as="geometry">
            <mxPoint x="550" y="289.5" as="sourcePoint" />
            <mxPoint x="590" y="290" as="targetPoint" />
          </mxGeometry>
        </mxCell>
        <mxCell id="-d1CYgEN2nXXVW5TSLsx-13" value="" style="endArrow=classic;html=1;rounded=0;" parent="1" source="-d1CYgEN2nXXVW5TSLsx-6" edge="1">
          <mxGeometry width="50" height="50" relative="1" as="geometry">
            <mxPoint x="550" y="230" as="sourcePoint" />
            <mxPoint x="590" y="130" as="targetPoint" />
            <Array as="points">
              <mxPoint x="570" y="130" />
            </Array>
          </mxGeometry>
        </mxCell>
        <mxCell id="-d1CYgEN2nXXVW5TSLsx-44" value="" style="edgeStyle=orthogonalEdgeStyle;rounded=0;orthogonalLoop=1;jettySize=auto;html=1;" parent="1" source="-d1CYgEN2nXXVW5TSLsx-14" target="-d1CYgEN2nXXVW5TSLsx-15" edge="1">
          <mxGeometry relative="1" as="geometry" />
        </mxCell>
        <mxCell id="-d1CYgEN2nXXVW5TSLsx-14" value="Documento de Casos de Uso de Alto Nível" style="ellipse;whiteSpace=wrap;html=1;aspect=fixed;" parent="1" vertex="1">
          <mxGeometry x="590" y="80" width="100" height="100" as="geometry" />
        </mxCell>
        <mxCell id="-d1CYgEN2nXXVW5TSLsx-15" value="Relatório de Defeitos Casos de Uso de Alto Nível" style="ellipse;whiteSpace=wrap;html=1;aspect=fixed;" parent="1" vertex="1">
          <mxGeometry x="730" y="80" width="100" height="100" as="geometry" />
        </mxCell>
        <mxCell id="-d1CYgEN2nXXVW5TSLsx-16" value="Relatório de Defeitos Casos de Uso Expandido" style="ellipse;whiteSpace=wrap;html=1;aspect=fixed;" parent="1" vertex="1">
          <mxGeometry x="730" y="240" width="100" height="100" as="geometry" />
        </mxCell>
        <mxCell id="-d1CYgEN2nXXVW5TSLsx-18" value="" style="endArrow=classic;html=1;rounded=0;" parent="1" source="-d1CYgEN2nXXVW5TSLsx-14" target="-d1CYgEN2nXXVW5TSLsx-15" edge="1">
          <mxGeometry width="50" height="50" relative="1" as="geometry">
            <mxPoint x="690" y="129.5" as="sourcePoint" />
            <mxPoint x="730" y="130" as="targetPoint" />
          </mxGeometry>
        </mxCell>
        <mxCell id="-d1CYgEN2nXXVW5TSLsx-19" value="" style="endArrow=classic;html=1;rounded=0;" parent="1" source="-d1CYgEN2nXXVW5TSLsx-10" target="-d1CYgEN2nXXVW5TSLsx-16" edge="1">
          <mxGeometry width="50" height="50" relative="1" as="geometry">
            <mxPoint x="690" y="289.5" as="sourcePoint" />
            <mxPoint x="730" y="290" as="targetPoint" />
          </mxGeometry>
        </mxCell>
        <mxCell id="-d1CYgEN2nXXVW5TSLsx-20" value="Modelo Conceitual" style="ellipse;whiteSpace=wrap;html=1;aspect=fixed;" parent="1" vertex="1">
          <mxGeometry x="860" y="170" width="80" height="80" as="geometry" />
        </mxCell>
        <mxCell id="-d1CYgEN2nXXVW5TSLsx-21" value="" style="endArrow=classic;html=1;rounded=0;" parent="1" target="-d1CYgEN2nXXVW5TSLsx-20" edge="1">
          <mxGeometry width="50" height="50" relative="1" as="geometry">
            <mxPoint x="830" y="129.5" as="sourcePoint" />
            <mxPoint x="870" y="130" as="targetPoint" />
            <Array as="points">
              <mxPoint x="850" y="130" />
            </Array>
          </mxGeometry>
        </mxCell>
        <mxCell id="-d1CYgEN2nXXVW5TSLsx-22" value="" style="endArrow=classic;html=1;rounded=0;" parent="1" target="-d1CYgEN2nXXVW5TSLsx-20" edge="1">
          <mxGeometry width="50" height="50" relative="1" as="geometry">
            <mxPoint x="830" y="290" as="sourcePoint" />
            <mxPoint x="870" y="290.5" as="targetPoint" />
            <Array as="points">
              <mxPoint x="850" y="290" />
            </Array>
          </mxGeometry>
        </mxCell>
        <mxCell id="-d1CYgEN2nXXVW5TSLsx-23" value="Relatório de Defeitos&lt;div&gt;Modelo Conceitual&lt;/div&gt;" style="ellipse;whiteSpace=wrap;html=1;aspect=fixed;" parent="1" vertex="1">
          <mxGeometry x="980" y="160" width="100" height="100" as="geometry" />
        </mxCell>
        <mxCell id="-d1CYgEN2nXXVW5TSLsx-25" value="" style="endArrow=classic;html=1;rounded=0;" parent="1" source="-d1CYgEN2nXXVW5TSLsx-34" target="-d1CYgEN2nXXVW5TSLsx-36" edge="1">
          <mxGeometry width="50" height="50" relative="1" as="geometry">
            <mxPoint x="1070" y="409.47" as="sourcePoint" />
            <mxPoint x="1110" y="350" as="targetPoint" />
            <Array as="points">
              <mxPoint x="1090" y="350" />
            </Array>
          </mxGeometry>
        </mxCell>
        <mxCell id="-d1CYgEN2nXXVW5TSLsx-26" value="Diagrama de Colaboração" style="ellipse;whiteSpace=wrap;html=1;aspect=fixed;" parent="1" vertex="1">
          <mxGeometry x="1120" y="160" width="100" height="100" as="geometry" />
        </mxCell>
        <mxCell id="-d1CYgEN2nXXVW5TSLsx-27" value="" style="endArrow=classic;html=1;rounded=0;" parent="1" edge="1">
          <mxGeometry width="50" height="50" relative="1" as="geometry">
            <mxPoint x="1080" y="209.5" as="sourcePoint" />
            <mxPoint x="1120" y="210" as="targetPoint" />
          </mxGeometry>
        </mxCell>
        <mxCell id="-d1CYgEN2nXXVW5TSLsx-28" value="Relatório de Defeitos Diagrama de Colaboração" style="ellipse;whiteSpace=wrap;html=1;aspect=fixed;" parent="1" vertex="1">
          <mxGeometry x="1260" y="160" width="100" height="100" as="geometry" />
        </mxCell>
        <mxCell id="-d1CYgEN2nXXVW5TSLsx-29" value="" style="endArrow=classic;html=1;rounded=0;" parent="1" edge="1">
          <mxGeometry width="50" height="50" relative="1" as="geometry">
            <mxPoint x="1220" y="209.5" as="sourcePoint" />
            <mxPoint x="1260" y="210" as="targetPoint" />
          </mxGeometry>
        </mxCell>
        <mxCell id="-d1CYgEN2nXXVW5TSLsx-32" value="Relatório de Defeitos Casos de Uso" style="ellipse;whiteSpace=wrap;html=1;aspect=fixed;" parent="1" vertex="1">
          <mxGeometry x="850" y="360" width="100" height="100" as="geometry" />
        </mxCell>
        <mxCell id="-d1CYgEN2nXXVW5TSLsx-33" value="" style="endArrow=classic;html=1;rounded=0;entryX=0;entryY=0.5;entryDx=0;entryDy=0;strokeColor=#ff0000;" parent="1" source="-d1CYgEN2nXXVW5TSLsx-6" target="-d1CYgEN2nXXVW5TSLsx-32" edge="1">
          <mxGeometry width="50" height="50" relative="1" as="geometry">
            <mxPoint x="420" y="330" as="sourcePoint" />
            <mxPoint x="460" y="330.5" as="targetPoint" />
            <Array as="points">
              <mxPoint x="570" y="410" />
            </Array>
          </mxGeometry>
        </mxCell>
        <mxCell id="-d1CYgEN2nXXVW5TSLsx-34" value="Diagrama de Sequência" style="ellipse;whiteSpace=wrap;html=1;aspect=fixed;" parent="1" vertex="1">
          <mxGeometry x="990" y="370" width="80" height="80" as="geometry" />
        </mxCell>
        <mxCell id="-d1CYgEN2nXXVW5TSLsx-35" value="" style="endArrow=classic;html=1;rounded=0;strokeColor=#ff0000;" parent="1" edge="1">
          <mxGeometry width="50" height="50" relative="1" as="geometry">
            <mxPoint x="950" y="409.5" as="sourcePoint" />
            <mxPoint x="990" y="410" as="targetPoint" />
          </mxGeometry>
        </mxCell>
        <mxCell id="-d1CYgEN2nXXVW5TSLsx-36" value="Diagrama de Classes" style="ellipse;whiteSpace=wrap;html=1;aspect=fixed;" parent="1" vertex="1">
          <mxGeometry x="1130" y="310" width="80" height="80" as="geometry" />
        </mxCell>
        <mxCell id="-d1CYgEN2nXXVW5TSLsx-38" value="Relatório de Defeitos Diagrama de Sequência" style="ellipse;whiteSpace=wrap;html=1;aspect=fixed;" parent="1" vertex="1">
          <mxGeometry x="1120" y="420" width="100" height="100" as="geometry" />
        </mxCell>
        <mxCell id="-d1CYgEN2nXXVW5TSLsx-40" value="" style="endArrow=classic;html=1;rounded=0;entryX=0;entryY=0.5;entryDx=0;entryDy=0;" parent="1" source="-d1CYgEN2nXXVW5TSLsx-34" target="-d1CYgEN2nXXVW5TSLsx-38" edge="1">
          <mxGeometry width="50" height="50" relative="1" as="geometry">
            <mxPoint x="1060" y="450" as="sourcePoint" />
            <mxPoint x="1100" y="450.5" as="targetPoint" />
            <Array as="points">
              <mxPoint x="1090" y="470" />
            </Array>
          </mxGeometry>
        </mxCell>
        <mxCell id="-d1CYgEN2nXXVW5TSLsx-41" value="Relatório de Defeitos Diagrama de Classes" style="ellipse;whiteSpace=wrap;html=1;aspect=fixed;" parent="1" vertex="1">
          <mxGeometry x="1260" y="300" width="100" height="100" as="geometry" />
        </mxCell>
        <mxCell id="-d1CYgEN2nXXVW5TSLsx-42" value="" style="endArrow=classic;html=1;rounded=0;" parent="1" source="-d1CYgEN2nXXVW5TSLsx-36" target="-d1CYgEN2nXXVW5TSLsx-41" edge="1">
          <mxGeometry width="50" height="50" relative="1" as="geometry">
            <mxPoint x="1210" y="349.47" as="sourcePoint" />
            <mxPoint x="1250" y="349.97" as="targetPoint" />
          </mxGeometry>
        </mxCell>
        <mxCell id="-d1CYgEN2nXXVW5TSLsx-43" value="" style="endArrow=classic;html=1;rounded=0;" parent="1" edge="1">
          <mxGeometry width="50" height="50" relative="1" as="geometry">
            <mxPoint x="940" y="209.47000000000003" as="sourcePoint" />
            <mxPoint x="980" y="209.97000000000003" as="targetPoint" />
          </mxGeometry>
        </mxCell>
        <mxCell id="-d1CYgEN2nXXVW5TSLsx-45" value="Desenvolvimento" style="ellipse;whiteSpace=wrap;html=1;aspect=fixed;" parent="1" vertex="1">
          <mxGeometry x="1400" y="230" width="90" height="90" as="geometry" />
        </mxCell>
        <mxCell id="-d1CYgEN2nXXVW5TSLsx-46" value="" style="endArrow=classic;html=1;rounded=0;" parent="1" source="-d1CYgEN2nXXVW5TSLsx-41" target="-d1CYgEN2nXXVW5TSLsx-45" edge="1">
          <mxGeometry width="50" height="50" relative="1" as="geometry">
            <mxPoint x="1360" y="349.47" as="sourcePoint" />
            <mxPoint x="1410" y="349.47" as="targetPoint" />
            <Array as="points">
              <mxPoint x="1390" y="350" />
            </Array>
          </mxGeometry>
        </mxCell>
        <mxCell id="-d1CYgEN2nXXVW5TSLsx-47" value="" style="endArrow=classic;html=1;rounded=0;" parent="1" source="-d1CYgEN2nXXVW5TSLsx-28" target="-d1CYgEN2nXXVW5TSLsx-45" edge="1">
          <mxGeometry width="50" height="50" relative="1" as="geometry">
            <mxPoint x="1370" y="229" as="sourcePoint" />
            <mxPoint x="1420" y="229" as="targetPoint" />
            <Array as="points">
              <mxPoint x="1390" y="210" />
            </Array>
          </mxGeometry>
        </mxCell>
        <mxCell id="-d1CYgEN2nXXVW5TSLsx-48" value="" style="endArrow=classic;html=1;rounded=0;strokeColor=#ff0000;" parent="1" edge="1">
          <mxGeometry width="50" height="50" relative="1" as="geometry">
            <mxPoint x="1490" y="274.47" as="sourcePoint" />
            <mxPoint x="1540" y="274.47" as="targetPoint" />
          </mxGeometry>
        </mxCell>
        <mxCell id="-d1CYgEN2nXXVW5TSLsx-49" value="Testes Unitários" style="ellipse;whiteSpace=wrap;html=1;aspect=fixed;" parent="1" vertex="1">
          <mxGeometry x="1540" y="235" width="80" height="80" as="geometry" />
        </mxCell>
        <mxCell id="-d1CYgEN2nXXVW5TSLsx-50" value="" style="endArrow=classic;html=1;rounded=0;strokeColor=#ff0000;" parent="1" edge="1">
          <mxGeometry width="50" height="50" relative="1" as="geometry">
            <mxPoint x="1620" y="274.47" as="sourcePoint" />
            <mxPoint x="1670" y="274.47" as="targetPoint" />
          </mxGeometry>
        </mxCell>
        <mxCell id="-d1CYgEN2nXXVW5TSLsx-51" value="Testes de Integração" style="ellipse;whiteSpace=wrap;html=1;aspect=fixed;" parent="1" vertex="1">
          <mxGeometry x="1670" y="230" width="90" height="90" as="geometry" />
        </mxCell>
        <mxCell id="-d1CYgEN2nXXVW5TSLsx-53" value="" style="endArrow=classic;html=1;rounded=0;strokeColor=#ff0000;" parent="1" edge="1">
          <mxGeometry width="50" height="50" relative="1" as="geometry">
            <mxPoint x="1760" y="274.47" as="sourcePoint" />
            <mxPoint x="1810" y="274.47" as="targetPoint" />
          </mxGeometry>
        </mxCell>
        <mxCell id="W42R2RPPDMQHl6AB9smQ-2" value="1.1" style="ellipse;whiteSpace=wrap;html=1;aspect=fixed;" vertex="1" parent="1">
          <mxGeometry x="1810" y="250" width="50" height="50" as="geometry" />
        </mxCell>
        <mxCell id="W42R2RPPDMQHl6AB9smQ-4" value="1.1.2" style="ellipse;whiteSpace=wrap;html=1;aspect=fixed;" vertex="1" parent="1">
          <mxGeometry x="1890" y="250" width="50" height="50" as="geometry" />
        </mxCell>
        <mxCell id="W42R2RPPDMQHl6AB9smQ-5" value="" style="endArrow=classic;html=1;rounded=0;" edge="1" parent="1" target="W42R2RPPDMQHl6AB9smQ-4">
          <mxGeometry width="50" height="50" relative="1" as="geometry">
            <mxPoint x="1860" y="275" as="sourcePoint" />
            <mxPoint x="2150" y="360" as="targetPoint" />
          </mxGeometry>
        </mxCell>
        <mxCell id="W42R2RPPDMQHl6AB9smQ-6" value="1.1.1" style="ellipse;whiteSpace=wrap;html=1;aspect=fixed;" vertex="1" parent="1">
          <mxGeometry x="1890" y="180" width="50" height="50" as="geometry" />
        </mxCell>
        <mxCell id="W42R2RPPDMQHl6AB9smQ-7" value="" style="endArrow=classic;html=1;rounded=0;entryX=0;entryY=0.5;entryDx=0;entryDy=0;" edge="1" parent="1" source="W42R2RPPDMQHl6AB9smQ-2" target="W42R2RPPDMQHl6AB9smQ-6">
          <mxGeometry width="50" height="50" relative="1" as="geometry">
            <mxPoint x="1860" y="205" as="sourcePoint" />
            <mxPoint x="2150" y="290" as="targetPoint" />
            <Array as="points">
              <mxPoint x="1870" y="205" />
            </Array>
          </mxGeometry>
        </mxCell>
        <mxCell id="W42R2RPPDMQHl6AB9smQ-8" value="1.1.3" style="ellipse;whiteSpace=wrap;html=1;aspect=fixed;" vertex="1" parent="1">
          <mxGeometry x="1890" y="320" width="50" height="50" as="geometry" />
        </mxCell>
        <mxCell id="W42R2RPPDMQHl6AB9smQ-9" value="" style="endArrow=classic;html=1;rounded=0;" edge="1" parent="1" source="W42R2RPPDMQHl6AB9smQ-2" target="W42R2RPPDMQHl6AB9smQ-8">
          <mxGeometry width="50" height="50" relative="1" as="geometry">
            <mxPoint x="1860" y="345" as="sourcePoint" />
            <mxPoint x="2150" y="430" as="targetPoint" />
            <Array as="points">
              <mxPoint x="1870" y="345" />
            </Array>
          </mxGeometry>
        </mxCell>
        <mxCell id="W42R2RPPDMQHl6AB9smQ-10" value="1.2" style="ellipse;whiteSpace=wrap;html=1;aspect=fixed;" vertex="1" parent="1">
          <mxGeometry x="1970" y="250" width="50" height="50" as="geometry" />
        </mxCell>
        <mxCell id="W42R2RPPDMQHl6AB9smQ-11" value="" style="endArrow=classic;html=1;rounded=0;" edge="1" parent="1" target="W42R2RPPDMQHl6AB9smQ-10">
          <mxGeometry width="50" height="50" relative="1" as="geometry">
            <mxPoint x="1940" y="275" as="sourcePoint" />
            <mxPoint x="2230" y="360" as="targetPoint" />
          </mxGeometry>
        </mxCell>
        <mxCell id="W42R2RPPDMQHl6AB9smQ-12" value="" style="endArrow=classic;html=1;rounded=0;exitX=1;exitY=0.5;exitDx=0;exitDy=0;" edge="1" parent="1" source="W42R2RPPDMQHl6AB9smQ-6" target="W42R2RPPDMQHl6AB9smQ-10">
          <mxGeometry width="50" height="50" relative="1" as="geometry">
            <mxPoint x="1950" y="285" as="sourcePoint" />
            <mxPoint x="1980" y="285" as="targetPoint" />
            <Array as="points">
              <mxPoint x="1960" y="205" />
            </Array>
          </mxGeometry>
        </mxCell>
        <mxCell id="W42R2RPPDMQHl6AB9smQ-13" value="" style="endArrow=classic;html=1;rounded=0;exitX=1;exitY=0.5;exitDx=0;exitDy=0;entryX=0.248;entryY=0.972;entryDx=0;entryDy=0;entryPerimeter=0;" edge="1" parent="1" source="W42R2RPPDMQHl6AB9smQ-8" target="W42R2RPPDMQHl6AB9smQ-10">
          <mxGeometry width="50" height="50" relative="1" as="geometry">
            <mxPoint x="1960" y="295" as="sourcePoint" />
            <mxPoint x="1990" y="295" as="targetPoint" />
            <Array as="points">
              <mxPoint x="1960" y="345" />
            </Array>
          </mxGeometry>
        </mxCell>
        <mxCell id="W42R2RPPDMQHl6AB9smQ-14" value="1.2.2" style="ellipse;whiteSpace=wrap;html=1;aspect=fixed;" vertex="1" parent="1">
          <mxGeometry x="2050" y="250" width="50" height="50" as="geometry" />
        </mxCell>
        <mxCell id="W42R2RPPDMQHl6AB9smQ-15" value="" style="endArrow=classic;html=1;rounded=0;" edge="1" parent="1" target="W42R2RPPDMQHl6AB9smQ-14">
          <mxGeometry width="50" height="50" relative="1" as="geometry">
            <mxPoint x="2020" y="275" as="sourcePoint" />
            <mxPoint x="2310" y="360" as="targetPoint" />
          </mxGeometry>
        </mxCell>
        <mxCell id="W42R2RPPDMQHl6AB9smQ-16" value="1.2.1" style="ellipse;whiteSpace=wrap;html=1;aspect=fixed;" vertex="1" parent="1">
          <mxGeometry x="2050" y="180" width="50" height="50" as="geometry" />
        </mxCell>
        <mxCell id="W42R2RPPDMQHl6AB9smQ-17" value="" style="endArrow=classic;html=1;rounded=0;entryX=0;entryY=0.5;entryDx=0;entryDy=0;" edge="1" parent="1" target="W42R2RPPDMQHl6AB9smQ-16">
          <mxGeometry width="50" height="50" relative="1" as="geometry">
            <mxPoint x="2006" y="253" as="sourcePoint" />
            <mxPoint x="2310" y="290" as="targetPoint" />
            <Array as="points">
              <mxPoint x="2030" y="205" />
            </Array>
          </mxGeometry>
        </mxCell>
        <mxCell id="W42R2RPPDMQHl6AB9smQ-18" value="1.2.3" style="ellipse;whiteSpace=wrap;html=1;aspect=fixed;" vertex="1" parent="1">
          <mxGeometry x="2050" y="320" width="50" height="50" as="geometry" />
        </mxCell>
        <mxCell id="W42R2RPPDMQHl6AB9smQ-19" value="" style="endArrow=classic;html=1;rounded=0;" edge="1" parent="1" target="W42R2RPPDMQHl6AB9smQ-18">
          <mxGeometry width="50" height="50" relative="1" as="geometry">
            <mxPoint x="2006" y="297" as="sourcePoint" />
            <mxPoint x="2310" y="430" as="targetPoint" />
            <Array as="points">
              <mxPoint x="2030" y="345" />
            </Array>
          </mxGeometry>
        </mxCell>
        <mxCell id="W42R2RPPDMQHl6AB9smQ-20" value="1.3" style="ellipse;whiteSpace=wrap;html=1;aspect=fixed;" vertex="1" parent="1">
          <mxGeometry x="2130" y="250" width="50" height="50" as="geometry" />
        </mxCell>
        <mxCell id="W42R2RPPDMQHl6AB9smQ-21" value="" style="endArrow=classic;html=1;rounded=0;" edge="1" parent="1" target="W42R2RPPDMQHl6AB9smQ-20">
          <mxGeometry width="50" height="50" relative="1" as="geometry">
            <mxPoint x="2100" y="275" as="sourcePoint" />
            <mxPoint x="2390" y="360" as="targetPoint" />
          </mxGeometry>
        </mxCell>
        <mxCell id="W42R2RPPDMQHl6AB9smQ-22" value="" style="endArrow=classic;html=1;rounded=0;exitX=1;exitY=0.5;exitDx=0;exitDy=0;" edge="1" parent="1" source="W42R2RPPDMQHl6AB9smQ-16" target="W42R2RPPDMQHl6AB9smQ-20">
          <mxGeometry width="50" height="50" relative="1" as="geometry">
            <mxPoint x="2110" y="285" as="sourcePoint" />
            <mxPoint x="2140" y="285" as="targetPoint" />
            <Array as="points">
              <mxPoint x="2120" y="205" />
            </Array>
          </mxGeometry>
        </mxCell>
        <mxCell id="W42R2RPPDMQHl6AB9smQ-23" value="" style="endArrow=classic;html=1;rounded=0;exitX=1;exitY=0.5;exitDx=0;exitDy=0;entryX=0.248;entryY=0.972;entryDx=0;entryDy=0;entryPerimeter=0;" edge="1" parent="1" source="W42R2RPPDMQHl6AB9smQ-18" target="W42R2RPPDMQHl6AB9smQ-20">
          <mxGeometry width="50" height="50" relative="1" as="geometry">
            <mxPoint x="2120" y="295" as="sourcePoint" />
            <mxPoint x="2150" y="295" as="targetPoint" />
            <Array as="points">
              <mxPoint x="2120" y="345" />
            </Array>
          </mxGeometry>
        </mxCell>
        <mxCell id="W42R2RPPDMQHl6AB9smQ-24" value="2.1" style="ellipse;whiteSpace=wrap;html=1;aspect=fixed;" vertex="1" parent="1">
          <mxGeometry x="1810" y="460" width="50" height="50" as="geometry" />
        </mxCell>
        <mxCell id="W42R2RPPDMQHl6AB9smQ-25" value="2.1.2" style="ellipse;whiteSpace=wrap;html=1;aspect=fixed;" vertex="1" parent="1">
          <mxGeometry x="1890" y="460" width="50" height="50" as="geometry" />
        </mxCell>
        <mxCell id="W42R2RPPDMQHl6AB9smQ-26" value="" style="endArrow=classic;html=1;rounded=0;" edge="1" parent="1" target="W42R2RPPDMQHl6AB9smQ-25">
          <mxGeometry width="50" height="50" relative="1" as="geometry">
            <mxPoint x="1860" y="485" as="sourcePoint" />
            <mxPoint x="2150" y="570" as="targetPoint" />
          </mxGeometry>
        </mxCell>
        <mxCell id="W42R2RPPDMQHl6AB9smQ-27" value="2.1.1" style="ellipse;whiteSpace=wrap;html=1;aspect=fixed;" vertex="1" parent="1">
          <mxGeometry x="1890" y="390" width="50" height="50" as="geometry" />
        </mxCell>
        <mxCell id="W42R2RPPDMQHl6AB9smQ-28" value="" style="endArrow=classic;html=1;rounded=0;entryX=0;entryY=0.5;entryDx=0;entryDy=0;" edge="1" parent="1" source="W42R2RPPDMQHl6AB9smQ-24" target="W42R2RPPDMQHl6AB9smQ-27">
          <mxGeometry width="50" height="50" relative="1" as="geometry">
            <mxPoint x="1860" y="415" as="sourcePoint" />
            <mxPoint x="2150" y="500" as="targetPoint" />
            <Array as="points">
              <mxPoint x="1870" y="415" />
            </Array>
          </mxGeometry>
        </mxCell>
        <mxCell id="W42R2RPPDMQHl6AB9smQ-29" value="2.1.3" style="ellipse;whiteSpace=wrap;html=1;aspect=fixed;" vertex="1" parent="1">
          <mxGeometry x="1890" y="530" width="50" height="50" as="geometry" />
        </mxCell>
        <mxCell id="W42R2RPPDMQHl6AB9smQ-30" value="" style="endArrow=classic;html=1;rounded=0;" edge="1" parent="1" source="W42R2RPPDMQHl6AB9smQ-24" target="W42R2RPPDMQHl6AB9smQ-29">
          <mxGeometry width="50" height="50" relative="1" as="geometry">
            <mxPoint x="1860" y="555" as="sourcePoint" />
            <mxPoint x="2150" y="640" as="targetPoint" />
            <Array as="points">
              <mxPoint x="1870" y="555" />
            </Array>
          </mxGeometry>
        </mxCell>
        <mxCell id="W42R2RPPDMQHl6AB9smQ-31" value="2.2" style="ellipse;whiteSpace=wrap;html=1;aspect=fixed;" vertex="1" parent="1">
          <mxGeometry x="1970" y="460" width="50" height="50" as="geometry" />
        </mxCell>
        <mxCell id="W42R2RPPDMQHl6AB9smQ-32" value="" style="endArrow=classic;html=1;rounded=0;" edge="1" parent="1" target="W42R2RPPDMQHl6AB9smQ-31">
          <mxGeometry width="50" height="50" relative="1" as="geometry">
            <mxPoint x="1940" y="485" as="sourcePoint" />
            <mxPoint x="2230" y="570" as="targetPoint" />
          </mxGeometry>
        </mxCell>
        <mxCell id="W42R2RPPDMQHl6AB9smQ-33" value="" style="endArrow=classic;html=1;rounded=0;exitX=1;exitY=0.5;exitDx=0;exitDy=0;" edge="1" parent="1" source="W42R2RPPDMQHl6AB9smQ-27" target="W42R2RPPDMQHl6AB9smQ-31">
          <mxGeometry width="50" height="50" relative="1" as="geometry">
            <mxPoint x="1950" y="495" as="sourcePoint" />
            <mxPoint x="1980" y="495" as="targetPoint" />
            <Array as="points">
              <mxPoint x="1960" y="415" />
            </Array>
          </mxGeometry>
        </mxCell>
        <mxCell id="W42R2RPPDMQHl6AB9smQ-34" value="" style="endArrow=classic;html=1;rounded=0;exitX=1;exitY=0.5;exitDx=0;exitDy=0;entryX=0.248;entryY=0.972;entryDx=0;entryDy=0;entryPerimeter=0;" edge="1" parent="1" source="W42R2RPPDMQHl6AB9smQ-29" target="W42R2RPPDMQHl6AB9smQ-31">
          <mxGeometry width="50" height="50" relative="1" as="geometry">
            <mxPoint x="1960" y="505" as="sourcePoint" />
            <mxPoint x="1990" y="505" as="targetPoint" />
            <Array as="points">
              <mxPoint x="1960" y="555" />
            </Array>
          </mxGeometry>
        </mxCell>
        <mxCell id="W42R2RPPDMQHl6AB9smQ-35" value="2.2.2" style="ellipse;whiteSpace=wrap;html=1;aspect=fixed;" vertex="1" parent="1">
          <mxGeometry x="2050" y="460" width="50" height="50" as="geometry" />
        </mxCell>
        <mxCell id="W42R2RPPDMQHl6AB9smQ-36" value="" style="endArrow=classic;html=1;rounded=0;" edge="1" parent="1" target="W42R2RPPDMQHl6AB9smQ-35">
          <mxGeometry width="50" height="50" relative="1" as="geometry">
            <mxPoint x="2020" y="485" as="sourcePoint" />
            <mxPoint x="2310" y="570" as="targetPoint" />
          </mxGeometry>
        </mxCell>
        <mxCell id="W42R2RPPDMQHl6AB9smQ-37" value="2.2.1" style="ellipse;whiteSpace=wrap;html=1;aspect=fixed;" vertex="1" parent="1">
          <mxGeometry x="2050" y="390" width="50" height="50" as="geometry" />
        </mxCell>
        <mxCell id="W42R2RPPDMQHl6AB9smQ-38" value="" style="endArrow=classic;html=1;rounded=0;entryX=0;entryY=0.5;entryDx=0;entryDy=0;" edge="1" parent="1" target="W42R2RPPDMQHl6AB9smQ-37">
          <mxGeometry width="50" height="50" relative="1" as="geometry">
            <mxPoint x="2006" y="463" as="sourcePoint" />
            <mxPoint x="2310" y="500" as="targetPoint" />
            <Array as="points">
              <mxPoint x="2030" y="415" />
            </Array>
          </mxGeometry>
        </mxCell>
        <mxCell id="W42R2RPPDMQHl6AB9smQ-39" value="2.2.3" style="ellipse;whiteSpace=wrap;html=1;aspect=fixed;" vertex="1" parent="1">
          <mxGeometry x="2050" y="530" width="50" height="50" as="geometry" />
        </mxCell>
        <mxCell id="W42R2RPPDMQHl6AB9smQ-40" value="" style="endArrow=classic;html=1;rounded=0;" edge="1" parent="1" target="W42R2RPPDMQHl6AB9smQ-39">
          <mxGeometry width="50" height="50" relative="1" as="geometry">
            <mxPoint x="2006" y="507" as="sourcePoint" />
            <mxPoint x="2310" y="640" as="targetPoint" />
            <Array as="points">
              <mxPoint x="2030" y="555" />
            </Array>
          </mxGeometry>
        </mxCell>
        <mxCell id="W42R2RPPDMQHl6AB9smQ-41" value="2.3" style="ellipse;whiteSpace=wrap;html=1;aspect=fixed;" vertex="1" parent="1">
          <mxGeometry x="2130" y="460" width="50" height="50" as="geometry" />
        </mxCell>
        <mxCell id="W42R2RPPDMQHl6AB9smQ-42" value="" style="endArrow=classic;html=1;rounded=0;" edge="1" parent="1" target="W42R2RPPDMQHl6AB9smQ-41">
          <mxGeometry width="50" height="50" relative="1" as="geometry">
            <mxPoint x="2100" y="485" as="sourcePoint" />
            <mxPoint x="2390" y="570" as="targetPoint" />
          </mxGeometry>
        </mxCell>
        <mxCell id="W42R2RPPDMQHl6AB9smQ-43" value="" style="endArrow=classic;html=1;rounded=0;exitX=1;exitY=0.5;exitDx=0;exitDy=0;" edge="1" parent="1" source="W42R2RPPDMQHl6AB9smQ-37" target="W42R2RPPDMQHl6AB9smQ-41">
          <mxGeometry width="50" height="50" relative="1" as="geometry">
            <mxPoint x="2110" y="495" as="sourcePoint" />
            <mxPoint x="2140" y="495" as="targetPoint" />
            <Array as="points">
              <mxPoint x="2120" y="415" />
            </Array>
          </mxGeometry>
        </mxCell>
        <mxCell id="W42R2RPPDMQHl6AB9smQ-44" value="" style="endArrow=classic;html=1;rounded=0;exitX=1;exitY=0.5;exitDx=0;exitDy=0;entryX=0.248;entryY=0.972;entryDx=0;entryDy=0;entryPerimeter=0;" edge="1" parent="1" source="W42R2RPPDMQHl6AB9smQ-39" target="W42R2RPPDMQHl6AB9smQ-41">
          <mxGeometry width="50" height="50" relative="1" as="geometry">
            <mxPoint x="2120" y="505" as="sourcePoint" />
            <mxPoint x="2150" y="505" as="targetPoint" />
            <Array as="points">
              <mxPoint x="2120" y="555" />
            </Array>
          </mxGeometry>
        </mxCell>
        <mxCell id="W42R2RPPDMQHl6AB9smQ-45" value="" style="endArrow=classic;html=1;rounded=0;exitX=1;exitY=0.5;exitDx=0;exitDy=0;strokeColor=#ff0000;" edge="1" parent="1" source="W42R2RPPDMQHl6AB9smQ-20" target="W42R2RPPDMQHl6AB9smQ-24">
          <mxGeometry width="50" height="50" relative="1" as="geometry">
            <mxPoint x="1950" y="400" as="sourcePoint" />
            <mxPoint x="2000" y="350" as="targetPoint" />
            <Array as="points">
              <mxPoint x="2210" y="275" />
              <mxPoint x="2210" y="380" />
              <mxPoint x="1750" y="380" />
              <mxPoint x="1750" y="485" />
            </Array>
          </mxGeometry>
        </mxCell>
        <mxCell id="W42R2RPPDMQHl6AB9smQ-46" value="2.3.2" style="ellipse;whiteSpace=wrap;html=1;aspect=fixed;" vertex="1" parent="1">
          <mxGeometry x="2210" y="460" width="50" height="50" as="geometry" />
        </mxCell>
        <mxCell id="W42R2RPPDMQHl6AB9smQ-47" value="" style="endArrow=classic;html=1;rounded=0;" edge="1" parent="1" target="W42R2RPPDMQHl6AB9smQ-46">
          <mxGeometry width="50" height="50" relative="1" as="geometry">
            <mxPoint x="2180" y="485" as="sourcePoint" />
            <mxPoint x="2470" y="570" as="targetPoint" />
          </mxGeometry>
        </mxCell>
        <mxCell id="W42R2RPPDMQHl6AB9smQ-48" value="2.3.1" style="ellipse;whiteSpace=wrap;html=1;aspect=fixed;" vertex="1" parent="1">
          <mxGeometry x="2210" y="390" width="50" height="50" as="geometry" />
        </mxCell>
        <mxCell id="W42R2RPPDMQHl6AB9smQ-49" value="" style="endArrow=classic;html=1;rounded=0;entryX=0;entryY=0.5;entryDx=0;entryDy=0;" edge="1" parent="1" target="W42R2RPPDMQHl6AB9smQ-48">
          <mxGeometry width="50" height="50" relative="1" as="geometry">
            <mxPoint x="2166" y="463" as="sourcePoint" />
            <mxPoint x="2470" y="500" as="targetPoint" />
            <Array as="points">
              <mxPoint x="2190" y="415" />
            </Array>
          </mxGeometry>
        </mxCell>
        <mxCell id="W42R2RPPDMQHl6AB9smQ-50" value="2.3.3" style="ellipse;whiteSpace=wrap;html=1;aspect=fixed;" vertex="1" parent="1">
          <mxGeometry x="2210" y="530" width="50" height="50" as="geometry" />
        </mxCell>
        <mxCell id="W42R2RPPDMQHl6AB9smQ-51" value="" style="endArrow=classic;html=1;rounded=0;" edge="1" parent="1" target="W42R2RPPDMQHl6AB9smQ-50">
          <mxGeometry width="50" height="50" relative="1" as="geometry">
            <mxPoint x="2166" y="507" as="sourcePoint" />
            <mxPoint x="2470" y="640" as="targetPoint" />
            <Array as="points">
              <mxPoint x="2190" y="555" />
            </Array>
          </mxGeometry>
        </mxCell>
        <mxCell id="W42R2RPPDMQHl6AB9smQ-52" value="2.4" style="ellipse;whiteSpace=wrap;html=1;aspect=fixed;" vertex="1" parent="1">
          <mxGeometry x="2290" y="460" width="50" height="50" as="geometry" />
        </mxCell>
        <mxCell id="W42R2RPPDMQHl6AB9smQ-53" value="" style="endArrow=classic;html=1;rounded=0;" edge="1" parent="1" target="W42R2RPPDMQHl6AB9smQ-52">
          <mxGeometry width="50" height="50" relative="1" as="geometry">
            <mxPoint x="2260" y="485" as="sourcePoint" />
            <mxPoint x="2550" y="570" as="targetPoint" />
          </mxGeometry>
        </mxCell>
        <mxCell id="W42R2RPPDMQHl6AB9smQ-54" value="" style="endArrow=classic;html=1;rounded=0;exitX=1;exitY=0.5;exitDx=0;exitDy=0;" edge="1" parent="1" source="W42R2RPPDMQHl6AB9smQ-48" target="W42R2RPPDMQHl6AB9smQ-52">
          <mxGeometry width="50" height="50" relative="1" as="geometry">
            <mxPoint x="2270" y="495" as="sourcePoint" />
            <mxPoint x="2300" y="495" as="targetPoint" />
            <Array as="points">
              <mxPoint x="2280" y="415" />
            </Array>
          </mxGeometry>
        </mxCell>
        <mxCell id="W42R2RPPDMQHl6AB9smQ-55" value="" style="endArrow=classic;html=1;rounded=0;exitX=1;exitY=0.5;exitDx=0;exitDy=0;entryX=0.248;entryY=0.972;entryDx=0;entryDy=0;entryPerimeter=0;" edge="1" parent="1" source="W42R2RPPDMQHl6AB9smQ-50" target="W42R2RPPDMQHl6AB9smQ-52">
          <mxGeometry width="50" height="50" relative="1" as="geometry">
            <mxPoint x="2280" y="505" as="sourcePoint" />
            <mxPoint x="2310" y="505" as="targetPoint" />
            <Array as="points">
              <mxPoint x="2280" y="555" />
            </Array>
          </mxGeometry>
        </mxCell>
        <mxCell id="W42R2RPPDMQHl6AB9smQ-56" value="3.1" style="ellipse;whiteSpace=wrap;html=1;aspect=fixed;" vertex="1" parent="1">
          <mxGeometry x="1810" y="670" width="50" height="50" as="geometry" />
        </mxCell>
        <mxCell id="W42R2RPPDMQHl6AB9smQ-57" value="3.1.2" style="ellipse;whiteSpace=wrap;html=1;aspect=fixed;" vertex="1" parent="1">
          <mxGeometry x="1890" y="670" width="50" height="50" as="geometry" />
        </mxCell>
        <mxCell id="W42R2RPPDMQHl6AB9smQ-58" value="" style="endArrow=classic;html=1;rounded=0;" edge="1" parent="1" target="W42R2RPPDMQHl6AB9smQ-57">
          <mxGeometry width="50" height="50" relative="1" as="geometry">
            <mxPoint x="1860" y="695" as="sourcePoint" />
            <mxPoint x="2150" y="780" as="targetPoint" />
          </mxGeometry>
        </mxCell>
        <mxCell id="W42R2RPPDMQHl6AB9smQ-59" value="3.1.1" style="ellipse;whiteSpace=wrap;html=1;aspect=fixed;" vertex="1" parent="1">
          <mxGeometry x="1890" y="600" width="50" height="50" as="geometry" />
        </mxCell>
        <mxCell id="W42R2RPPDMQHl6AB9smQ-60" value="" style="endArrow=classic;html=1;rounded=0;entryX=0;entryY=0.5;entryDx=0;entryDy=0;" edge="1" parent="1" source="W42R2RPPDMQHl6AB9smQ-56" target="W42R2RPPDMQHl6AB9smQ-59">
          <mxGeometry width="50" height="50" relative="1" as="geometry">
            <mxPoint x="1860" y="625" as="sourcePoint" />
            <mxPoint x="2150" y="710" as="targetPoint" />
            <Array as="points">
              <mxPoint x="1870" y="625" />
            </Array>
          </mxGeometry>
        </mxCell>
        <mxCell id="W42R2RPPDMQHl6AB9smQ-61" value="3.1.3" style="ellipse;whiteSpace=wrap;html=1;aspect=fixed;" vertex="1" parent="1">
          <mxGeometry x="1890" y="740" width="50" height="50" as="geometry" />
        </mxCell>
        <mxCell id="W42R2RPPDMQHl6AB9smQ-62" value="" style="endArrow=classic;html=1;rounded=0;" edge="1" parent="1" source="W42R2RPPDMQHl6AB9smQ-56" target="W42R2RPPDMQHl6AB9smQ-61">
          <mxGeometry width="50" height="50" relative="1" as="geometry">
            <mxPoint x="1860" y="765" as="sourcePoint" />
            <mxPoint x="2150" y="850" as="targetPoint" />
            <Array as="points">
              <mxPoint x="1870" y="765" />
            </Array>
          </mxGeometry>
        </mxCell>
        <mxCell id="W42R2RPPDMQHl6AB9smQ-63" value="3.2" style="ellipse;whiteSpace=wrap;html=1;aspect=fixed;" vertex="1" parent="1">
          <mxGeometry x="1970" y="670" width="50" height="50" as="geometry" />
        </mxCell>
        <mxCell id="W42R2RPPDMQHl6AB9smQ-64" value="" style="endArrow=classic;html=1;rounded=0;" edge="1" parent="1" target="W42R2RPPDMQHl6AB9smQ-63">
          <mxGeometry width="50" height="50" relative="1" as="geometry">
            <mxPoint x="1940" y="695" as="sourcePoint" />
            <mxPoint x="2230" y="780" as="targetPoint" />
          </mxGeometry>
        </mxCell>
        <mxCell id="W42R2RPPDMQHl6AB9smQ-65" value="" style="endArrow=classic;html=1;rounded=0;exitX=1;exitY=0.5;exitDx=0;exitDy=0;" edge="1" parent="1" source="W42R2RPPDMQHl6AB9smQ-59" target="W42R2RPPDMQHl6AB9smQ-63">
          <mxGeometry width="50" height="50" relative="1" as="geometry">
            <mxPoint x="1950" y="705" as="sourcePoint" />
            <mxPoint x="1980" y="705" as="targetPoint" />
            <Array as="points">
              <mxPoint x="1960" y="625" />
            </Array>
          </mxGeometry>
        </mxCell>
        <mxCell id="W42R2RPPDMQHl6AB9smQ-66" value="" style="endArrow=classic;html=1;rounded=0;exitX=1;exitY=0.5;exitDx=0;exitDy=0;entryX=0.248;entryY=0.972;entryDx=0;entryDy=0;entryPerimeter=0;" edge="1" parent="1" source="W42R2RPPDMQHl6AB9smQ-61" target="W42R2RPPDMQHl6AB9smQ-63">
          <mxGeometry width="50" height="50" relative="1" as="geometry">
            <mxPoint x="1960" y="715" as="sourcePoint" />
            <mxPoint x="1990" y="715" as="targetPoint" />
            <Array as="points">
              <mxPoint x="1960" y="765" />
            </Array>
          </mxGeometry>
        </mxCell>
        <mxCell id="W42R2RPPDMQHl6AB9smQ-67" value="" style="endArrow=classic;html=1;rounded=0;exitX=1;exitY=0.5;exitDx=0;exitDy=0;entryX=0;entryY=0.5;entryDx=0;entryDy=0;strokeColor=#ff0000;" edge="1" parent="1" source="W42R2RPPDMQHl6AB9smQ-52" target="W42R2RPPDMQHl6AB9smQ-56">
          <mxGeometry width="50" height="50" relative="1" as="geometry">
            <mxPoint x="1970" y="620" as="sourcePoint" />
            <mxPoint x="2020" y="570" as="targetPoint" />
            <Array as="points">
              <mxPoint x="2370" y="485" />
              <mxPoint x="2370" y="590" />
              <mxPoint x="2315" y="590" />
              <mxPoint x="1750" y="590" />
              <mxPoint x="1750" y="695" />
            </Array>
          </mxGeometry>
        </mxCell>
        <mxCell id="W42R2RPPDMQHl6AB9smQ-68" value="Fim" style="ellipse;whiteSpace=wrap;html=1;aspect=fixed;" vertex="1" parent="1">
          <mxGeometry x="2050" y="670" width="50" height="50" as="geometry" />
        </mxCell>
        <mxCell id="W42R2RPPDMQHl6AB9smQ-69" value="" style="endArrow=classic;html=1;rounded=0;strokeColor=#ff0000;" edge="1" parent="1">
          <mxGeometry width="50" height="50" relative="1" as="geometry">
            <mxPoint x="2020" y="694.6600000000001" as="sourcePoint" />
            <mxPoint x="2050" y="694.6600000000001" as="targetPoint" />
          </mxGeometry>
        </mxCell>
        <mxCell id="W42R2RPPDMQHl6AB9smQ-70" value="Desenvolvimento" style="text;html=1;align=center;verticalAlign=middle;resizable=0;points=[];autosize=1;strokeColor=none;fillColor=none;" vertex="1" parent="1">
          <mxGeometry x="1935" y="130" width="120" height="30" as="geometry" />
        </mxCell>
        <mxCell id="W42R2RPPDMQHl6AB9smQ-71" value="Documentação" style="text;html=1;align=center;verticalAlign=middle;resizable=0;points=[];autosize=1;strokeColor=none;fillColor=none;" vertex="1" parent="1">
          <mxGeometry x="660" y="50" width="100" height="30" as="geometry" />
        </mxCell>
        <mxCell id="W42R2RPPDMQHl6AB9smQ-72" value="" style="endArrow=classic;html=1;rounded=0;entryX=0.5;entryY=1;entryDx=0;entryDy=0;exitX=1;exitY=0.5;exitDx=0;exitDy=0;strokeColor=#ff0000;" edge="1" parent="1" source="-d1CYgEN2nXXVW5TSLsx-38" target="-d1CYgEN2nXXVW5TSLsx-45">
          <mxGeometry width="50" height="50" relative="1" as="geometry">
            <mxPoint x="980" y="410" as="sourcePoint" />
            <mxPoint x="1030" y="360" as="targetPoint" />
            <Array as="points">
              <mxPoint x="1350" y="470" />
            </Array>
          </mxGeometry>
        </mxCell>
      </root>
    </mxGraphModel>
  </diagram>
</mxfile>
